<svg width="24" height="24" viewBox="0 0 24 24" fill="none" xmlns="http://www.w3.org/2000/svg">
<path d="M15.5284 7.69072H4.00596L7.70812 3.98856C7.81168 3.87711 7.86805 3.72988 7.86536 3.57777C7.86267 3.42565 7.80113 3.2805 7.69369 3.17279C7.58625 3.06508 7.44125 3.00319 7.28914 3.00012C7.13704 2.99705 6.98965 3.05303 6.87795 3.15632L2.17128 7.863C2.06158 7.97329 2 8.12252 2 8.27809C2 8.43365 2.06158 8.58288 2.17128 8.69317L6.32844 12.8503C6.44066 12.9493 6.58637 13.0018 6.73591 12.9971C6.88545 12.9924 7.02759 12.9309 7.13338 12.8251C7.23917 12.7193 7.30066 12.5772 7.30536 12.4276C7.31005 12.2781 7.25757 12.1324 7.15862 12.0202L4.00596 8.8675H15.5284C16.9327 8.8675 18.2794 9.42536 19.2724 10.4183C20.2654 11.4113 20.8232 12.7581 20.8232 14.1624C20.8232 15.5666 20.2654 16.9134 19.2724 17.9064C18.2794 18.8994 16.9327 19.4572 15.5284 19.4572H13.1687C13.0153 19.4613 12.8696 19.5251 12.7626 19.635C12.6556 19.7449 12.5957 19.8922 12.5957 20.0456C12.5957 20.199 12.6556 20.3463 12.7626 20.4562C12.8696 20.5661 13.0153 20.6299 13.1687 20.634H15.5284C19.0981 20.634 22 17.7309 22 14.1624C22 10.5938 19.0969 7.69072 15.5284 7.69072Z" fill="#fff"/>
<path d="M11 17.9917C11 17.5773 10.9358 17.1878 10.8074 16.8232C10.6849 16.4586 10.5069 16.1409 10.2735 15.8702C10.0401 15.5994 9.76007 15.3867 9.43331 15.232C9.10656 15.0773 8.74187 15 8.33926 15C7.93665 15 7.56905 15.0801 7.23645 15.2403C6.9097 15.395 6.62962 15.6077 6.39622 15.8785C6.16282 16.1492 5.98194 16.4696 5.85357 16.8398C5.7252 17.2044 5.66102 17.5939 5.66102 18.0083C5.66102 18.4227 5.72228 18.8122 5.84482 19.1768C5.97319 19.5414 6.15407 19.8591 6.38747 20.1298C6.62087 20.4006 6.90094 20.6133 7.2277 20.768C7.55446 20.9227 7.91914 21 8.32176 21C8.72437 21 9.08905 20.9227 9.41581 20.768C9.7484 20.6077 10.0314 20.3923 10.2648 20.1215C10.4982 19.8508 10.6791 19.5331 10.8074 19.1685C10.9358 18.7983 11 18.4061 11 17.9917ZM9.88844 18.0083C9.88844 18.2956 9.85051 18.5663 9.77466 18.8204C9.70464 19.0691 9.60253 19.2873 9.46832 19.4751C9.33412 19.663 9.17074 19.8122 8.97819 19.9227C8.79147 20.0276 8.57849 20.0801 8.33926 20.0801C8.10003 20.0801 7.88413 20.0276 7.69158 19.9227C7.49903 19.8122 7.33273 19.663 7.19269 19.4751C7.05849 19.2818 6.95346 19.0608 6.8776 18.8122C6.80758 18.558 6.77257 18.2845 6.77257 17.9917C6.77257 17.7044 6.80758 17.4337 6.8776 17.1796C6.95346 16.9254 7.05849 16.7072 7.19269 16.5249C7.3269 16.337 7.48736 16.1906 7.67408 16.0856C7.86663 15.9751 8.08252 15.9199 8.32176 15.9199C8.56099 15.9199 8.77688 15.9751 8.96944 16.0856C9.16199 16.1961 9.32537 16.3453 9.45957 16.5331C9.59961 16.721 9.70464 16.942 9.77466 17.1961C9.85051 17.4503 9.88844 17.721 9.88844 18.0083Z" fill="#fff"/>
<path d="M2 15.5325L2.21973 16.3338L3.25089 16.0638V21H4.31868V15H3.51784L2 15.5325Z" fill="#fff"/>
</svg>
