<svg width="24" height="24" viewBox="0 0 24 24" fill="none" xmlns="http://www.w3.org/2000/svg">
<path d="M8.47161 7.69072H19.994L16.2919 3.98856C16.1883 3.87711 16.1319 3.72988 16.1346 3.57777C16.1373 3.42565 16.1989 3.2805 16.3063 3.17279C16.4138 3.06508 16.5588 3.00319 16.7109 3.00012C16.863 2.99705 17.0103 3.05303 17.1221 3.15632L21.8287 7.863C21.9384 7.97329 22 8.12252 22 8.27809C22 8.43365 21.9384 8.58288 21.8287 8.69317L17.6716 12.8503C17.5593 12.9493 17.4136 13.0018 17.2641 12.9971C17.1146 12.9924 16.9724 12.9309 16.8666 12.8251C16.7608 12.7193 16.6993 12.5772 16.6946 12.4276C16.69 12.2781 16.7424 12.1324 16.8414 12.0202L19.994 8.8675H8.47161C7.06733 8.8675 5.72058 9.42536 4.7276 10.4183C3.73462 11.4113 3.17676 12.7581 3.17676 14.1624C3.17676 15.5666 3.73462 16.9134 4.7276 17.9064C5.72058 18.8994 7.06733 19.4572 8.47161 19.4572H11.0227C11.1761 19.4613 11.3218 19.5251 11.4288 19.635C11.5358 19.7449 11.5957 19.8922 11.5957 20.0456C11.5957 20.199 11.5358 20.3463 11.4288 20.4562C11.3218 20.5661 11.1761 20.6299 11.0227 20.634H8.47161C4.90186 20.634 2 17.7309 2 14.1624C2 10.5938 4.90311 7.69072 8.47161 7.69072Z" fill="#fff"/>
<path d="M22 17.9917C22 17.5773 21.9358 17.1878 21.8074 16.8232C21.6849 16.4586 21.5069 16.1409 21.2735 15.8702C21.0401 15.5994 20.7601 15.3867 20.4333 15.232C20.1066 15.0773 19.7419 15 19.3393 15C18.9366 15 18.569 15.0801 18.2365 15.2403C17.9097 15.395 17.6296 15.6077 17.3962 15.8785C17.1628 16.1492 16.9819 16.4696 16.8536 16.8398C16.7252 17.2044 16.661 17.5939 16.661 18.0083C16.661 18.4227 16.7223 18.8122 16.8448 19.1768C16.9732 19.5414 17.1541 19.8591 17.3875 20.1298C17.6209 20.4006 17.9009 20.6133 18.2277 20.768C18.5545 20.9227 18.9191 21 19.3218 21C19.7244 21 20.0891 20.9227 20.4158 20.768C20.7484 20.6077 21.0314 20.3923 21.2648 20.1215C21.4982 19.8508 21.6791 19.5331 21.8074 19.1685C21.9358 18.7983 22 18.4061 22 17.9917ZM20.8884 18.0083C20.8884 18.2956 20.8505 18.5663 20.7747 18.8204C20.7046 19.0691 20.6025 19.2873 20.4683 19.4751C20.3341 19.663 20.1707 19.8122 19.9782 19.9227C19.7915 20.0276 19.5785 20.0801 19.3393 20.0801C19.1 20.0801 18.8841 20.0276 18.6916 19.9227C18.499 19.8122 18.3327 19.663 18.1927 19.4751C18.0585 19.2818 17.9535 19.0608 17.8776 18.8122C17.8076 18.558 17.7726 18.2845 17.7726 17.9917C17.7726 17.7044 17.8076 17.4337 17.8776 17.1796C17.9535 16.9254 18.0585 16.7072 18.1927 16.5249C18.3269 16.337 18.4874 16.1906 18.6741 16.0856C18.8666 15.9751 19.0825 15.9199 19.3218 15.9199C19.561 15.9199 19.7769 15.9751 19.9694 16.0856C20.162 16.1961 20.3254 16.3453 20.4596 16.5331C20.5996 16.721 20.7046 16.942 20.7747 17.1961C20.8505 17.4503 20.8884 17.721 20.8884 18.0083Z" fill="#fff"/>
<path d="M13 15.5325L13.2197 16.3338L14.2509 16.0638V21H15.3187V15H14.5178L13 15.5325Z" fill="#fff"/>
</svg>
