<svg width="24" height="24" viewBox="0 0 24 24" fill="none" xmlns="http://www.w3.org/2000/svg">
<path d="M10.2359 10.8231H2.5883C2.43228 10.8229 2.28268 10.7609 2.1724 10.6505C2.06212 10.5402 2.00018 10.3905 2.00018 10.2345V2.58729C2.0004 2.43145 2.06245 2.28208 2.17272 2.17197C2.28299 2.06185 2.43246 2 2.5883 2H10.2359C10.3919 2 10.5415 2.06197 10.6518 2.17226C10.7621 2.28255 10.8241 2.43214 10.8241 2.58812V10.2345C10.8241 10.3905 10.7621 10.5402 10.6518 10.6505C10.5415 10.7609 10.3919 10.8229 10.2359 10.8231ZM3.17684 9.64639H9.6474V3.17583H3.17684V9.64639Z" fill="#fff"/>
<path d="M21.4129 10.8231H13.7656C13.6095 10.8231 13.4599 10.761 13.3495 10.6507C13.2391 10.5403 13.1771 10.3906 13.1771 10.2345V2.58729C13.1773 2.43138 13.2394 2.28194 13.3498 2.17181C13.4602 2.06169 13.6097 1.99989 13.7656 2H21.4129C21.4901 1.99995 21.5666 2.01512 21.638 2.04466C21.7094 2.07419 21.7742 2.11752 21.8289 2.17214C21.8835 2.22676 21.9268 2.29161 21.9563 2.36299C21.9859 2.43437 22.0011 2.51087 22.001 2.58812V10.2345C22.0011 10.3118 21.9859 10.3883 21.9563 10.4597C21.9268 10.5311 21.8835 10.596 21.8289 10.6507C21.7743 10.7053 21.7094 10.7487 21.638 10.7782C21.5667 10.8078 21.4901 10.8231 21.4129 10.8231ZM14.3538 9.64639H20.8247V3.17583H14.3538V9.64639Z" fill="#fff"/>
<path d="M10.2357 21.9999H2.58812C2.43217 21.9998 2.28265 21.9378 2.17238 21.8275C2.06211 21.7172 2.00011 21.5677 2 21.4118V13.7641C2.00011 13.6082 2.06211 13.4587 2.17238 13.3484C2.28265 13.2381 2.43217 13.1761 2.58812 13.176H10.2357C10.3917 13.1761 10.5412 13.2381 10.6515 13.3484C10.7618 13.4587 10.8238 13.6082 10.8239 13.7641V21.4118C10.8238 21.5677 10.7618 21.7172 10.6515 21.8275C10.5412 21.9378 10.3917 21.9998 10.2357 21.9999ZM3.17666 20.8232H9.64723V14.3527H3.17666V20.8232Z" fill="#fff"/>
<path d="M21.4129 21.9997H13.7656C13.6096 21.9997 13.46 21.9377 13.3496 21.8274C13.2393 21.7171 13.1772 21.5676 13.1771 21.4115V13.7639C13.1772 13.6079 13.2393 13.4583 13.3496 13.348C13.46 13.2377 13.6096 13.1758 13.7656 13.1758H21.4129C21.5688 13.1758 21.7184 13.2377 21.8287 13.348C21.939 13.4583 22.001 13.6079 22.001 13.7639V21.4115C22.001 21.5675 21.939 21.7171 21.8287 21.8274C21.7184 21.9377 21.5688 21.9997 21.4129 21.9997ZM14.3538 20.823H20.8247V14.3524H14.3538V20.823Z" fill="#fff"/>
</svg>
