<svg width="24" height="24" viewBox="0 0 24 24" fill="none" xmlns="http://www.w3.org/2000/svg">
<path fill-rule="evenodd" clip-rule="evenodd" d="M4.65553 18.9999C3.18892 18.9999 2 17.811 2 16.3443L2 8.65541C2 7.1888 3.18892 5.99987 4.65553 5.99987H9.45703C9.76472 5.99987 10.0142 6.24931 10.0142 6.557C10.0142 6.8647 9.76472 7.11413 9.45703 7.11413H4.65553C3.80431 7.11413 3.11426 7.80418 3.11426 8.65541L3.11426 16.3443C3.11426 17.1956 3.80431 17.8856 4.65553 17.8856H15.3586C16.2098 17.8856 16.8999 17.1956 16.8999 16.3444L16.8999 12.5571C16.9 12.2494 17.1494 12 17.4571 12C17.7648 12 18.0142 12.2495 18.0142 12.5572L18.0142 16.3445C18.0141 17.811 16.8252 18.9999 15.3586 18.9999H4.65553ZM13.6697 10.9999C12.2031 10.9999 11.0142 9.81095 11.0142 8.34434V4.65553C11.0142 3.18892 12.2031 2 13.6697 2L19.3445 2C20.8111 2 22 3.18892 22 4.65553V8.34434C22 9.81095 20.8111 10.9999 19.3445 10.9999H13.6697ZM12.1284 8.34434C12.1284 9.19556 12.8185 9.88562 13.6697 9.88562H19.3445C20.1957 9.88562 20.8857 9.19556 20.8857 8.34434V4.65553C20.8857 3.80431 20.1957 3.11426 19.3445 3.11426L13.6697 3.11426C12.8185 3.11426 12.1284 3.80431 12.1284 4.65553V8.34434Z" fill="#fff"/>
<path d="M13.4412 22H6.6183C6.53972 22.0021 6.46153 21.9884 6.38833 21.9598C6.31513 21.9312 6.24841 21.8882 6.1921 21.8333C6.13579 21.7785 6.09103 21.7129 6.06047 21.6405C6.02991 21.5681 6.01416 21.4903 6.01416 21.4117C6.01416 21.3331 6.02991 21.2553 6.06047 21.1829C6.09103 21.1105 6.13579 21.0449 6.1921 20.9901C6.24841 20.9352 6.31513 20.8922 6.38833 20.8636C6.46153 20.835 6.53972 20.8213 6.6183 20.8234L13.4412 20.8234C13.5945 20.8275 13.7402 20.8912 13.8472 21.0011C13.9542 21.111 14.0141 21.2583 14.0141 21.4117C14.0141 21.5651 13.9542 21.7124 13.8472 21.8223C13.7402 21.9322 13.5945 21.9959 13.4412 22Z" fill="#fff"/>
</svg>
