<svg width="25" height="24" viewBox="0 0 25 24" fill="none" xmlns="http://www.w3.org/2000/svg">
<path fill-rule="evenodd" clip-rule="evenodd" d="M20.6452 22H5.35087C4.72706 21.9993 4.129 21.7512 3.6879 21.3101C3.2468 20.8691 2.99871 20.271 2.99805 19.6472V4.35282C2.99871 3.72901 3.2468 3.13095 3.6879 2.68985C4.129 2.24876 4.72706 2.00066 5.35087 2H20.6452C21.269 2.00066 21.8671 2.24876 22.3082 2.68985C22.7493 3.13095 22.9974 3.72901 22.998 4.35282V19.6472C22.9974 20.271 22.7493 20.8691 22.3082 21.3101C21.8671 21.7512 21.269 21.9993 20.6452 22ZM5.35087 3.17662C5.03902 3.17695 4.74004 3.30097 4.51953 3.52148C4.29902 3.74199 4.17499 4.04097 4.17466 4.35282V19.6472C4.17499 19.959 4.29902 20.258 4.51953 20.4785C4.74004 20.699 5.03902 20.8231 5.35087 20.8234H20.6452C20.9571 20.8231 21.2561 20.699 21.4766 20.4785C21.6971 20.258 21.8211 19.959 21.8214 19.6472V4.35282C21.8211 4.04097 21.6971 3.74199 21.4766 3.52148C21.2561 3.30097 20.9571 3.17695 20.6452 3.17662H5.35087ZM16.5287 18.4705H9.46938C9.39081 18.4726 9.31261 18.4589 9.23941 18.4303C9.16621 18.4016 9.09948 18.3586 9.04317 18.3038C8.98686 18.249 8.9421 18.1834 8.91154 18.111C8.88098 18.0386 8.86523 17.9608 8.86523 17.8822C8.86523 17.8036 8.88098 17.7258 8.91154 17.6533C8.9421 17.5809 8.98686 17.5154 9.04317 17.4605C9.09948 17.4057 9.16621 17.3627 9.23941 17.3341C9.31261 17.3054 9.39081 17.2918 9.46938 17.2938H16.5287C16.6072 17.2918 16.6854 17.3054 16.7586 17.3341C16.8318 17.3627 16.8986 17.4057 16.9549 17.4605C17.0112 17.5154 17.0559 17.5809 17.0865 17.6533C17.1171 17.7258 17.1328 17.8036 17.1328 17.8822C17.1328 17.9608 17.1171 18.0386 17.0865 18.111C17.0559 18.1834 17.0112 18.249 16.9549 18.3038C16.8986 18.3586 16.8318 18.4016 16.7586 18.4303C16.6854 18.4589 16.6072 18.4726 16.5287 18.4705ZM7.11544 14.9411H18.8804C19.0363 14.9411 19.1859 14.8791 19.2962 14.7688C19.4065 14.6586 19.4685 14.509 19.4685 14.353C19.4685 14.197 19.4065 14.0474 19.2962 13.9371C19.1859 13.8269 19.0363 13.7649 18.8804 13.7649H7.11544C6.95947 13.7649 6.80989 13.8269 6.69959 13.9371C6.5893 14.0474 6.52734 14.197 6.52734 14.353C6.52734 14.509 6.5893 14.6586 6.69959 14.7688C6.80989 14.8791 6.95947 14.9411 7.11544 14.9411Z" fill="#fff"/>
</svg>
