<svg width="25" height="24" viewBox="0 0 25 24" fill="none" xmlns="http://www.w3.org/2000/svg">
<path d="M13.8208 12.0209L22.7945 3.02878C22.8546 2.97567 22.9032 2.91078 22.9373 2.83812C22.9715 2.76545 22.9904 2.68656 22.9929 2.6063C22.9954 2.52603 22.9815 2.44611 22.952 2.37145C22.9225 2.29678 22.878 2.22896 22.8213 2.17218C22.7647 2.1154 22.697 2.07085 22.6225 2.04129C22.548 2.01173 22.4682 1.99777 22.3881 2.00029C22.308 2.00281 22.2293 2.02175 22.1568 2.05593C22.0843 2.09012 22.0195 2.13883 21.9665 2.19906L12.9911 11.1891L4.01739 2.19698C3.96418 2.13749 3.89942 2.08948 3.82708 2.05588C3.75474 2.02229 3.67633 2.00382 3.59663 2.00159C3.51693 1.99935 3.43761 2.01342 3.36351 2.04291C3.28941 2.0724 3.22208 2.11672 3.16563 2.17314C3.10919 2.22957 3.0648 2.29692 3.03518 2.3711C3.00556 2.44528 2.99133 2.52472 2.99335 2.60459C2.99538 2.68446 3.01363 2.76308 3.04697 2.83565C3.08031 2.90823 3.12806 2.97323 3.1873 3.02671L12.161 12.0188L3.1873 21.0131C3.08428 21.1247 3.02844 21.272 3.03151 21.424C3.03457 21.576 3.0963 21.721 3.20373 21.8283C3.31116 21.9357 3.45594 21.9972 3.60766 21.9999C3.75938 22.0026 3.90624 21.9463 4.01739 21.8428L12.9911 12.8506L21.9648 21.8428C22.0768 21.9417 22.2221 21.9941 22.3712 21.9894C22.5204 21.9847 22.6622 21.9233 22.7677 21.8175C22.8732 21.7118 22.9345 21.5697 22.9392 21.4203C22.9439 21.2708 22.8916 21.1252 22.7929 21.0131L13.8208 12.0209Z" fill="#fff"/>
</svg>
