<svg width="42" height="24" viewBox="0 0 42 24" fill="none" xmlns="http://www.w3.org/2000/svg">
<path d="M8.47161 7.69072H19.994L16.2919 3.98856C16.1883 3.87711 16.1319 3.72988 16.1346 3.57777C16.1373 3.42565 16.1989 3.2805 16.3063 3.17279C16.4138 3.06508 16.5588 3.00319 16.7109 3.00012C16.863 2.99705 17.0103 3.05303 17.1221 3.15632L21.8287 7.863C21.9384 7.97329 22 8.12252 22 8.27809C22 8.43365 21.9384 8.58288 21.8287 8.69317L17.6716 12.8503C17.5593 12.9493 17.4136 13.0018 17.2641 12.9971C17.1146 12.9924 16.9724 12.9309 16.8666 12.8251C16.7608 12.7193 16.6993 12.5772 16.6946 12.4276C16.69 12.2781 16.7424 12.1324 16.8414 12.0202L19.994 8.8675H8.47161C7.06733 8.8675 5.72058 9.42536 4.7276 10.4183C3.73462 11.4113 3.17676 12.7581 3.17676 14.1624C3.17676 15.5666 3.73462 16.9134 4.7276 17.9064C5.72058 18.8994 7.06733 19.4572 8.47161 19.4572H11.0227C11.1761 19.4613 11.3218 19.5251 11.4288 19.635C11.5358 19.7449 11.5957 19.8922 11.5957 20.0456C11.5957 20.199 11.5358 20.3463 11.4288 20.4562C11.3218 20.5661 11.1761 20.6299 11.0227 20.634H8.47161C4.90186 20.634 2 17.7309 2 14.1624C2 10.5938 4.90311 7.69072 8.47161 7.69072Z" fill="#fff"/>
<path d="M16.6172 20.0771V14.25H17.4346V21H16.6875L16.6172 20.0771ZM13.418 18.6753V18.583C13.418 18.2197 13.4619 17.8901 13.5498 17.5942C13.6406 17.2954 13.7681 17.0391 13.9321 16.8252C14.0991 16.6113 14.2969 16.4473 14.5254 16.333C14.7568 16.2158 15.0146 16.1572 15.2988 16.1572C15.5977 16.1572 15.8584 16.21 16.0811 16.3154C16.3066 16.418 16.4971 16.5688 16.6523 16.7681C16.8105 16.9644 16.9351 17.2017 17.0259 17.48C17.1167 17.7583 17.1797 18.0732 17.2148 18.4248V18.8291C17.1826 19.1777 17.1196 19.4912 17.0259 19.7695C16.9351 20.0479 16.8105 20.2852 16.6523 20.4814C16.4971 20.6777 16.3066 20.8286 16.0811 20.9341C15.8555 21.0366 15.5918 21.0879 15.29 21.0879C15.0117 21.0879 14.7568 21.0278 14.5254 20.9077C14.2969 20.7876 14.0991 20.6191 13.9321 20.4023C13.7681 20.1855 13.6406 19.9307 13.5498 19.6377C13.4619 19.3418 13.418 19.021 13.418 18.6753ZM14.2354 18.583V18.6753C14.2354 18.9126 14.2588 19.1353 14.3057 19.3433C14.3555 19.5513 14.4316 19.7344 14.5342 19.8926C14.6367 20.0508 14.7671 20.1753 14.9253 20.2661C15.0835 20.354 15.2725 20.3979 15.4922 20.3979C15.7617 20.3979 15.9829 20.3408 16.1558 20.2266C16.3315 20.1123 16.4722 19.9614 16.5776 19.7739C16.6831 19.5864 16.7651 19.3828 16.8237 19.1631V18.104C16.7886 17.9429 16.7373 17.7876 16.6699 17.6382C16.6055 17.4858 16.5205 17.3511 16.415 17.2339C16.3125 17.1138 16.1851 17.0186 16.0327 16.9482C15.8833 16.8779 15.7061 16.8428 15.501 16.8428C15.2783 16.8428 15.0864 16.8896 14.9253 16.9834C14.7671 17.0742 14.6367 17.2002 14.5342 17.3613C14.4316 17.5195 14.3555 17.7041 14.3057 17.915C14.2588 18.123 14.2354 18.3457 14.2354 18.583Z" fill="#fff"/>
<path d="M19.5835 16.2451V21H18.7661V16.2451H19.5835ZM18.7046 14.9839C18.7046 14.8521 18.7441 14.7407 18.8232 14.6499C18.9053 14.5591 19.0254 14.5137 19.1836 14.5137C19.3389 14.5137 19.4575 14.5591 19.5396 14.6499C19.6245 14.7407 19.667 14.8521 19.667 14.9839C19.667 15.1099 19.6245 15.2183 19.5396 15.3091C19.4575 15.397 19.3389 15.4409 19.1836 15.4409C19.0254 15.4409 18.9053 15.397 18.8232 15.3091C18.7441 15.2183 18.7046 15.1099 18.7046 14.9839Z" fill="#fff"/>
<path d="M21.7017 16.9922V21H20.8887V16.2451H21.6797L21.7017 16.9922ZM23.187 16.2188L23.1826 16.9746C23.1152 16.96 23.0508 16.9512 22.9893 16.9482C22.9307 16.9424 22.8633 16.9395 22.7871 16.9395C22.5996 16.9395 22.4341 16.9688 22.2905 17.0273C22.147 17.0859 22.0254 17.168 21.9258 17.2734C21.8262 17.3789 21.7471 17.5049 21.6885 17.6514C21.6328 17.7949 21.5962 17.9531 21.5786 18.126L21.3501 18.2578C21.3501 17.9707 21.3779 17.7012 21.4336 17.4492C21.4922 17.1973 21.5815 16.9746 21.7017 16.7812C21.8218 16.585 21.9741 16.4326 22.1587 16.3242C22.3462 16.2129 22.5688 16.1572 22.8267 16.1572C22.8853 16.1572 22.9526 16.1646 23.0288 16.1792C23.105 16.1909 23.1577 16.2041 23.187 16.2188Z" fill="#fff"/>
<path d="M25.8237 21.0879C25.4927 21.0879 25.1924 21.0322 24.9229 20.9209C24.6562 20.8066 24.4263 20.647 24.2329 20.4419C24.0425 20.2368 23.896 19.9937 23.7935 19.7124C23.6909 19.4312 23.6396 19.1235 23.6396 18.7896V18.605C23.6396 18.2183 23.6968 17.874 23.811 17.5723C23.9253 17.2676 24.0806 17.0098 24.2769 16.7988C24.4731 16.5879 24.6958 16.4282 24.9448 16.3198C25.1938 16.2114 25.4517 16.1572 25.7183 16.1572C26.0581 16.1572 26.3511 16.2158 26.5972 16.333C26.8462 16.4502 27.0498 16.6143 27.208 16.8252C27.3662 17.0332 27.4834 17.2793 27.5596 17.5635C27.6357 17.8447 27.6738 18.1523 27.6738 18.4863V18.8511H24.123V18.1875H26.8608V18.126C26.8491 17.915 26.8052 17.71 26.729 17.5107C26.6558 17.3115 26.5386 17.1475 26.3774 17.0186C26.2163 16.8896 25.9966 16.8252 25.7183 16.8252C25.5337 16.8252 25.3638 16.8647 25.2085 16.9438C25.0532 17.02 24.9199 17.1343 24.8086 17.2866C24.6973 17.439 24.6108 17.625 24.5493 17.8447C24.4878 18.0645 24.457 18.3179 24.457 18.605V18.7896C24.457 19.0151 24.4878 19.2275 24.5493 19.4268C24.6138 19.623 24.7061 19.7959 24.8262 19.9453C24.9492 20.0947 25.0972 20.2119 25.27 20.2969C25.4458 20.3818 25.645 20.4243 25.8677 20.4243C26.1548 20.4243 26.3979 20.3657 26.5972 20.2485C26.7964 20.1313 26.9707 19.9746 27.1201 19.7783L27.6123 20.1694C27.5098 20.3247 27.3794 20.4727 27.2212 20.6133C27.063 20.7539 26.8682 20.8682 26.6367 20.9561C26.4082 21.0439 26.1372 21.0879 25.8237 21.0879Z" fill="#fff"/>
<path d="M30.5259 20.4199C30.7192 20.4199 30.8979 20.3804 31.062 20.3013C31.2261 20.2222 31.3608 20.1138 31.4663 19.9761C31.5718 19.8354 31.6318 19.6758 31.6465 19.4971H32.4199C32.4053 19.7783 32.3101 20.0405 32.1343 20.2837C31.9614 20.5239 31.7344 20.7188 31.4531 20.8682C31.1719 21.0146 30.8628 21.0879 30.5259 21.0879C30.1685 21.0879 29.8564 21.0249 29.5898 20.8989C29.3262 20.7729 29.1064 20.6001 28.9307 20.3804C28.7578 20.1606 28.6274 19.9087 28.5396 19.6245C28.4546 19.3374 28.4121 19.0342 28.4121 18.7148V18.5303C28.4121 18.2109 28.4546 17.9092 28.5396 17.625C28.6274 17.3379 28.7578 17.0845 28.9307 16.8647C29.1064 16.645 29.3262 16.4722 29.5898 16.3462C29.8564 16.2202 30.1685 16.1572 30.5259 16.1572C30.8979 16.1572 31.2231 16.2334 31.5015 16.3857C31.7798 16.5352 31.998 16.7402 32.1562 17.001C32.3174 17.2588 32.4053 17.5518 32.4199 17.8799H31.6465C31.6318 17.6836 31.5762 17.5063 31.4795 17.3481C31.3857 17.1899 31.2568 17.064 31.0928 16.9702C30.9316 16.8735 30.7427 16.8252 30.5259 16.8252C30.2769 16.8252 30.0674 16.875 29.8975 16.9746C29.7305 17.0713 29.5972 17.2031 29.4976 17.3701C29.4009 17.5342 29.3306 17.7173 29.2866 17.9194C29.2456 18.1187 29.2251 18.3223 29.2251 18.5303V18.7148C29.2251 18.9229 29.2456 19.1279 29.2866 19.3301C29.3276 19.5322 29.3965 19.7153 29.4932 19.8794C29.5928 20.0435 29.7261 20.1753 29.8931 20.2749C30.063 20.3716 30.2739 20.4199 30.5259 20.4199Z" fill="#fff"/>
<path d="M35.3247 16.2451V16.8691H32.7539V16.2451H35.3247ZM33.624 15.0894H34.437V19.8223C34.437 19.9834 34.4619 20.105 34.5117 20.187C34.5615 20.269 34.626 20.3232 34.7051 20.3496C34.7842 20.376 34.8691 20.3892 34.96 20.3892C35.0273 20.3892 35.0977 20.3833 35.1709 20.3716C35.2471 20.3569 35.3042 20.3452 35.3423 20.3364L35.3467 21C35.2822 21.0205 35.1973 21.0396 35.0918 21.0571C34.9893 21.0776 34.8647 21.0879 34.7183 21.0879C34.519 21.0879 34.3359 21.0483 34.1689 20.9692C34.002 20.8901 33.8687 20.7583 33.769 20.5737C33.6724 20.3862 33.624 20.1343 33.624 19.8179V15.0894Z" fill="#fff"/>
<path d="M38.2515 21.0879C37.9204 21.0879 37.6201 21.0322 37.3506 20.9209C37.084 20.8066 36.854 20.647 36.6606 20.4419C36.4702 20.2368 36.3237 19.9937 36.2212 19.7124C36.1187 19.4312 36.0674 19.1235 36.0674 18.7896V18.605C36.0674 18.2183 36.1245 17.874 36.2388 17.5723C36.353 17.2676 36.5083 17.0098 36.7046 16.7988C36.9009 16.5879 37.1235 16.4282 37.3726 16.3198C37.6216 16.2114 37.8794 16.1572 38.146 16.1572C38.4858 16.1572 38.7788 16.2158 39.0249 16.333C39.2739 16.4502 39.4775 16.6143 39.6357 16.8252C39.7939 17.0332 39.9111 17.2793 39.9873 17.5635C40.0635 17.8447 40.1016 18.1523 40.1016 18.4863V18.8511H36.5508V18.1875H39.2886V18.126C39.2769 17.915 39.2329 17.71 39.1567 17.5107C39.0835 17.3115 38.9663 17.1475 38.8052 17.0186C38.644 16.8896 38.4243 16.8252 38.146 16.8252C37.9614 16.8252 37.7915 16.8647 37.6362 16.9438C37.481 17.02 37.3477 17.1343 37.2363 17.2866C37.125 17.439 37.0386 17.625 36.9771 17.8447C36.9155 18.0645 36.8848 18.3179 36.8848 18.605V18.7896C36.8848 19.0151 36.9155 19.2275 36.9771 19.4268C37.0415 19.623 37.1338 19.7959 37.2539 19.9453C37.377 20.0947 37.5249 20.2119 37.6978 20.2969C37.8735 20.3818 38.0728 20.4243 38.2954 20.4243C38.5825 20.4243 38.8257 20.3657 39.0249 20.2485C39.2241 20.1313 39.3984 19.9746 39.5479 19.7783L40.04 20.1694C39.9375 20.3247 39.8071 20.4727 39.6489 20.6133C39.4907 20.7539 39.2959 20.8682 39.0645 20.9561C38.8359 21.0439 38.5649 21.0879 38.2515 21.0879Z" fill="#fff"/>
<path d="M20.1571 3.98856L23.8593 7.69072L24.3652 8.27809L23.8593 8.8675L20.1571 12.5697C20.0582 12.6819 20.0057 12.8276 20.0104 12.9771C20.0151 13.1267 20.0766 13.2688 20.1823 13.3746C20.2881 13.4804 20.4303 13.5419 20.5798 13.5466C20.7294 13.5513 20.8751 13.4988 20.9873 13.3998L25.6939 8.69317C25.8037 8.58288 25.8652 8.43365 25.8652 8.27809C25.8652 8.12252 25.8037 7.97329 25.6939 7.863L20.9873 3.15632C20.8756 3.05303 20.7282 2.99705 20.5761 3.00012C20.424 3.00319 20.279 3.06508 20.1715 3.17279C20.0641 3.2805 20.0026 3.42565 19.9999 3.57777C19.9972 3.72988 20.0536 3.87711 20.1571 3.98856Z" fill="#fff"/>
</svg>
