<svg xmlns="http://www.w3.org/2000/svg" width="47" height="37" fill="none"><path fill="#fff" d="M34.28 12.036H16.971l5.56-5.553A.881.881 0 0 0 21.904 5a.884.884 0 0 0-.617.234l-7.07 7.06a.882.882 0 0 0 0 1.246l6.244 6.236a.884.884 0 0 0 1.468-.635.882.882 0 0 0-.22-.61l-4.736-4.73h17.307c2.11 0 4.132.837 5.624 2.327a7.937 7.937 0 0 1 0 11.232 7.958 7.958 0 0 1-5.624 2.326h-3.832a.885.885 0 0 0-.86.882.882.882 0 0 0 .86.883h3.832c5.362 0 9.721-4.355 9.721-9.707 0-5.353-4.36-9.708-9.72-9.708ZM4.83 26.378v7.133H3.593v-7.133H4.83ZM3.5 24.487c0-.198.06-.365.18-.501.124-.137.305-.205.545-.205.235 0 .414.068.539.205a.702.702 0 0 1 .192.5.686.686 0 0 1-.192.488c-.125.132-.304.198-.54.198-.239 0-.42-.066-.544-.198a.715.715 0 0 1-.18-.487ZM8.035 27.901v5.61h-1.23v-7.133H7.97l.066 1.523Zm-.292 1.773-.512-.02c.004-.487.077-.938.22-1.35.141-.418.34-.78.598-1.088.257-.308.563-.545.917-.712.36-.172.756-.257 1.19-.257.355 0 .675.048.958.145.284.092.526.241.725.448.204.206.36.474.466.804.106.325.16.723.16 1.193v4.674h-1.238v-4.687c0-.374-.055-.672-.166-.897a1.017 1.017 0 0 0-.485-.494c-.213-.105-.475-.158-.785-.158-.306 0-.585.064-.838.191a2 2 0 0 0-.645.527 2.646 2.646 0 0 0-.419.772 2.796 2.796 0 0 0-.146.91ZM15.67 26.378v7.133h-1.237v-7.133h1.237Zm-1.33-1.891c0-.198.06-.365.18-.501.123-.137.305-.205.545-.205.235 0 .414.068.538.205a.702.702 0 0 1 .193.5.686.686 0 0 1-.193.488c-.124.132-.303.198-.538.198-.24 0-.421-.066-.546-.198a.714.714 0 0 1-.18-.487ZM20.524 32.64c.293 0 .563-.059.812-.177.248-.119.452-.282.612-.488.16-.211.25-.45.272-.719h1.17a2.163 2.163 0 0 1-.432 1.18c-.261.36-.605.653-1.03.877-.426.22-.894.33-1.404.33-.54 0-1.013-.095-1.416-.284a2.803 2.803 0 0 1-.998-.778 3.464 3.464 0 0 1-.591-1.134 4.748 4.748 0 0 1-.193-1.364v-.277c0-.479.064-.931.192-1.358.133-.43.33-.81.592-1.14.266-.33.599-.589.998-.778.403-.189.875-.283 1.416-.283.563 0 1.056.114 1.477.342.42.225.751.532.99.923.244.387.378.826.4 1.319h-1.17a1.746 1.746 0 0 0-.253-.798 1.569 1.569 0 0 0-.586-.567 1.646 1.646 0 0 0-.858-.218c-.376 0-.693.075-.95.225a1.659 1.659 0 0 0-.606.593c-.146.246-.252.52-.319.824a4.49 4.49 0 0 0-.093.916v.277c0 .312.031.62.093.923.062.303.166.578.313.824.15.246.352.444.605.593.257.145.576.218.957.218Z"/><path fill="#fff" d="M26.11 26.378v7.133h-1.236v-7.133h1.236Zm-1.33-1.891c0-.198.06-.365.18-.501.124-.137.306-.205.545-.205.235 0 .415.068.539.205a.702.702 0 0 1 .193.5.686.686 0 0 1-.193.488c-.124.132-.304.198-.539.198-.239 0-.42-.066-.545-.198a.715.715 0 0 1-.18-.487ZM16.599 6.483l-5.588 5.553-.763.881.763.884 5.588 5.554a.88.88 0 0 1-.038 1.207.89.89 0 0 1-1.215.038l-7.104-7.06a.88.88 0 0 1 0-1.245l7.104-7.06a.89.89 0 0 1 1.231.024.88.88 0 0 1 .022 1.224Z"/></svg>